<svg width="48" height="48" viewBox="0 0 48 48" fill="none" xmlns="http://www.w3.org/2000/svg">
  <!-- Sound wave background -->
  <rect x="8" y="12" width="32" height="24" rx="2" fill="url(#gradient)" opacity="0.1"/>
  <rect x="8" y="12" width="32" height="24" rx="2" stroke="url(#gradient)" stroke-width="2"/>
  
  <!-- Sound waves -->
  <path d="M14 24C14 20 18 16 24 16C30 16 34 20 34 24C34 28 30 32 24 32C18 32 14 28 14 24Z" fill="none" stroke="url(#gradient)" stroke-width="1.5" opacity="0.6"/>
  <path d="M17 24C17 21.5 20 19.5 24 19.5C28 19.5 31 21.5 31 24C31 26.5 28 28.5 24 28.5C20 28.5 17 26.5 17 24Z" fill="none" stroke="url(#gradient)" stroke-width="1.5" opacity="0.8"/>
  
  <!-- Waveform bars -->
  <rect x="20" y="20" width="2" height="8" rx="1" fill="url(#gradient)"/>
  <rect x="23" y="18" width="2" height="12" rx="1" fill="url(#gradient)"/>
  <rect x="26" y="16" width="2" height="16" rx="1" fill="url(#gradient)"/>
  
  <!-- Microphone -->
  <ellipse cx="24" cy="22" rx="3" ry="4" fill="url(#gradient)" opacity="0.9"/>
  <path d="M21 22C21 24 22 26 24 26C26 26 27 24 27 22" stroke="url(#gradient)" stroke-width="1" fill="none"/>
  <rect x="23" y="26" width="2" height="3" fill="url(#gradient)"/>
  <path d="M20 29L28 29" stroke="url(#gradient)" stroke-width="1.5" stroke-linecap="round"/>
  
  <!-- Notes -->
  <circle cx="16" cy="16" r="1.5" fill="url(#gradient)" opacity="0.7"/>
  <path d="M17.5 16L17.5 12" stroke="url(#gradient)" stroke-width="1" opacity="0.7"/>
  <path d="M17.5 12L19 11" stroke="url(#gradient)" stroke-width="1" opacity="0.7"/>
  
  <circle cx="32" cy="32" r="1.5" fill="url(#gradient)" opacity="0.7"/>
  <path d="M33.5 32L33.5 28" stroke="url(#gradient)" stroke-width="1" opacity="0.7"/>
  <path d="M33.5 28L35 27" stroke="url(#gradient)" stroke-width="1" opacity="0.7"/>
  
  <!-- Frequency lines -->
  <path d="M10 20L12 20M10 24L12 24M10 28L12 20M36 20L38 20M36 24L38 24M36 28L38 28" stroke="url(#gradient)" stroke-width="0.5" opacity="0.4"/>
  
  <defs>
    <linearGradient id="gradient" x1="0%" y1="0%" x2="100%" y2="100%">
      <stop offset="0%" style="stop-color:#f97316;stop-opacity:1" />
      <stop offset="100%" style="stop-color:#ef4444;stop-opacity:1" />
    </linearGradient>
  </defs>
</svg>