<svg width="48" height="48" viewBox="0 0 48 48" fill="none" xmlns="http://www.w3.org/2000/svg">
  <!-- Shield background -->
  <path d="M24 4L8 10V22C8 32 24 44 24 44C24 44 40 32 40 22V10L24 4Z" fill="url(#gradient)" opacity="0.15"/>
  <path d="M24 4L8 10V22C8 32 24 44 24 44C24 44 40 32 40 22V10L24 4Z" stroke="url(#gradient)" stroke-width="2"/>
  
  <!-- Lock icon in center -->
  <rect x="18" y="20" width="12" height="8" rx="1" fill="url(#gradient)" opacity="0.9"/>
  <path d="M20 20V18C20 16.5 21 15 22.5 15H25.5C27 15 28 16.5 28 18V20" stroke="url(#gradient)" stroke-width="1.5" fill="none"/>
  <circle cx="24" cy="24" r="1.5" fill="white"/>
  
  <!-- Circuit pattern -->
  <path d="M12 12L16 12M32 12L36 12M12 36L16 36M32 36L36 36" stroke="url(#gradient)" stroke-width="1" opacity="0.6"/>
  <circle cx="12" cy="12" r="1" fill="url(#gradient)" opacity="0.8"/>
  <circle cx="36" cy="12" r="1" fill="url(#gradient)" opacity="0.8"/>
  <circle cx="12" cy="36" r="1" fill="url(#gradient)" opacity="0.8"/>
  <circle cx="36" cy="36" r="1" fill="url(#gradient)" opacity="0.8"/>
  
  <!-- Data lines -->
  <path d="M14 20L18 20M30 20L34 20M14 28L18 28M30 28L34 28" stroke="url(#gradient)" stroke-width="0.5" opacity="0.4"/>
  
  <defs>
    <linearGradient id="gradient" x1="0%" y1="0%" x2="100%" y2="100%">
      <stop offset="0%" style="stop-color:#06b6d4;stop-opacity:1" />
      <stop offset="100%" style="stop-color:#3b82f6;stop-opacity:1" />
    </linearGradient>
  </defs>
</svg>